<svg width="28" height="28" viewBox="0 0 28 28" fill="none" xmlns="http://www.w3.org/2000/svg">
<rect width="28" height="28" rx="14" fill="#F3F3F3"/>
<path d="M16.0694 14.0016L11.0351 8.96725C10.7227 8.65483 10.7227 8.1483 11.0351 7.83588C11.3475 7.52346 11.854 7.52346 12.1665 7.83588L17.7665 13.4359C18.0789 13.7483 18.0789 14.2548 17.7665 14.5672L12.1665 20.1672C11.854 20.4797 11.3475 20.4797 11.0351 20.1672C10.7227 19.8548 10.7227 19.3483 11.0351 19.0359L16.0694 14.0016Z" fill="#199CFF"/>
<mask id="mask0" mask-type="alpha" maskUnits="userSpaceOnUse" x="10" y="7" width="9" height="14">
<path d="M16.0694 14.0016L11.0351 8.96725C10.7227 8.65483 10.7227 8.1483 11.0351 7.83588C11.3475 7.52346 11.854 7.52346 12.1665 7.83588L17.7665 13.4359C18.0789 13.7483 18.0789 14.2548 17.7665 14.5672L12.1665 20.1672C11.854 20.4797 11.3475 20.4797 11.0351 20.1672C10.7227 19.8548 10.7227 19.3483 11.0351 19.0359L16.0694 14.0016Z" fill="white"/>
</mask>
<g mask="url(#mask0)">
<rect x="2" y="2" width="24" height="24" fill="#199CFF"/>
</g>
</svg>
