<svg width="28" height="28" viewBox="0 0 28 28" fill="none" xmlns="http://www.w3.org/2000/svg">
<rect width="28" height="28" rx="14" transform="matrix(-1 0 0 1 28 0)" fill="#F3F3F3"/>
<path d="M11.9306 14.0016L16.9649 8.96725C17.2773 8.65483 17.2773 8.1483 16.9649 7.83588C16.6525 7.52346 16.146 7.52346 15.8335 7.83588L10.2335 13.4359C9.92111 13.7483 9.92111 14.2548 10.2335 14.5672L15.8335 20.1672C16.146 20.4797 16.6525 20.4797 16.9649 20.1672C17.2773 19.8548 17.2773 19.3483 16.9649 19.0359L11.9306 14.0016Z" fill="#199CFF"/>
<mask id="mask0" mask-type="alpha" maskUnits="userSpaceOnUse" x="10" y="7" width="8" height="14">
<path d="M11.9306 14.0016L16.9649 8.96725C17.2773 8.65483 17.2773 8.1483 16.9649 7.83588C16.6525 7.52346 16.146 7.52346 15.8335 7.83588L10.2335 13.4359C9.92111 13.7483 9.92111 14.2548 10.2335 14.5672L15.8335 20.1672C16.146 20.4797 16.6525 20.4797 16.9649 20.1672C17.2773 19.8548 17.2773 19.3483 16.9649 19.0359L11.9306 14.0016Z" fill="white"/>
</mask>
<g mask="url(#mask0)">
<rect width="24" height="24" transform="matrix(-1 0 0 1 26 2)" fill="#199CFF"/>
</g>
</svg>
