<svg width="30" height="30" viewBox="0 0 30 30" fill="none" xmlns="http://www.w3.org/2000/svg">
<g filter="url(#filter0_d)">
<rect x="3" y="2" width="22" height="22" rx="11" fill="white"/>
<path d="M12.4485 12.9992L16.2243 16.775C16.4586 17.0093 16.4586 17.3892 16.2243 17.6235C15.9899 17.8578 15.6101 17.8578 15.3757 17.6235L11.1757 13.4235C10.9414 13.1892 10.9414 12.8093 11.1757 12.575L15.3757 8.37495C15.6101 8.14064 15.9899 8.14064 16.2243 8.37495C16.4586 8.60927 16.4586 8.98917 16.2243 9.22348L12.4485 12.9992Z" fill="#231E1E"/>
<mask id="mask0" mask-type="alpha" maskUnits="userSpaceOnUse" x="11" y="8" width="6" height="10">
<path d="M12.4485 12.9992L16.2243 16.775C16.4586 17.0093 16.4586 17.3892 16.2243 17.6235C15.9899 17.8578 15.6101 17.8578 15.3757 17.6235L11.1757 13.4235C10.9414 13.1892 10.9414 12.8093 11.1757 12.575L15.3757 8.37495C15.6101 8.14064 15.9899 8.14064 16.2243 8.37495C16.4586 8.60927 16.4586 8.98917 16.2243 9.22348L12.4485 12.9992Z" fill="white"/>
</mask>
<g mask="url(#mask0)">
<rect x="5" y="4" width="18" height="18" fill="#231E1E"/>
</g>
</g>
<defs>
<filter id="filter0_d" x="0" y="0" width="30" height="30" filterUnits="userSpaceOnUse" color-interpolation-filters="sRGB">
<feFlood flood-opacity="0" result="BackgroundImageFix"/>
<feColorMatrix in="SourceAlpha" type="matrix" values="0 0 0 0 0 0 0 0 0 0 0 0 0 0 0 0 0 0 127 0"/>
<feOffset dx="1" dy="2"/>
<feGaussianBlur stdDeviation="2"/>
<feColorMatrix type="matrix" values="0 0 0 0 0 0 0 0 0 0 0 0 0 0 0 0 0 0 0.08 0"/>
<feBlend mode="normal" in2="BackgroundImageFix" result="effect1_dropShadow"/>
<feBlend mode="normal" in="SourceGraphic" in2="effect1_dropShadow" result="shape"/>
</filter>
</defs>
</svg>
