<svg width="30" height="30" viewBox="0 0 30 30" fill="none" xmlns="http://www.w3.org/2000/svg">
<g filter="url(#filter0_d)">
<rect x="5" y="2" width="22" height="22" rx="11" fill="white"/>
<path d="M17.5511 12.9992L13.7753 9.22348C13.541 8.98917 13.541 8.60927 13.7753 8.37495C14.0097 8.14064 14.3896 8.14064 14.6239 8.37495L18.8239 12.575C19.0582 12.8093 19.0582 13.1892 18.8239 13.4235L14.6239 17.6235C14.3896 17.8578 14.0097 17.8578 13.7753 17.6235C13.541 17.3892 13.541 17.0093 13.7753 16.775L17.5511 12.9992Z" fill="#231E1E"/>
<mask id="mask0" mask-type="alpha" maskUnits="userSpaceOnUse" x="13" y="8" width="6" height="10">
<path d="M17.5511 12.9992L13.7753 9.22348C13.541 8.98917 13.541 8.60927 13.7753 8.37495C14.0097 8.14064 14.3896 8.14064 14.6239 8.37495L18.8239 12.575C19.0582 12.8093 19.0582 13.1892 18.8239 13.4235L14.6239 17.6235C14.3896 17.8578 14.0097 17.8578 13.7753 17.6235C13.541 17.3892 13.541 17.0093 13.7753 16.775L17.5511 12.9992Z" fill="white"/>
</mask>
<g mask="url(#mask0)">
<rect x="7" y="4" width="18" height="18" fill="#231E1E"/>
</g>
</g>
<defs>
<filter id="filter0_d" x="0" y="0" width="30" height="30" filterUnits="userSpaceOnUse" color-interpolation-filters="sRGB">
<feFlood flood-opacity="0" result="BackgroundImageFix"/>
<feColorMatrix in="SourceAlpha" type="matrix" values="0 0 0 0 0 0 0 0 0 0 0 0 0 0 0 0 0 0 127 0"/>
<feOffset dx="-1" dy="2"/>
<feGaussianBlur stdDeviation="2"/>
<feColorMatrix type="matrix" values="0 0 0 0 0 0 0 0 0 0 0 0 0 0 0 0 0 0 0.08 0"/>
<feBlend mode="normal" in2="BackgroundImageFix" result="effect1_dropShadow"/>
<feBlend mode="normal" in="SourceGraphic" in2="effect1_dropShadow" result="shape"/>
</filter>
</defs>
</svg>
