<svg width="102" height="102" viewBox="0 0 102 102" fill="none" xmlns="http://www.w3.org/2000/svg">
<circle cx="51" cy="51" r="51" fill="#3D5AFE"/>
<path fill-rule="evenodd" clip-rule="evenodd" d="M70.5649 26.3242L74.9454 28.9547L70.5649 31.5742L66.1845 28.9547L70.5649 26.3242ZM71.6522 38.7154V33.4654L76 30.8567V36.1067L71.6522 38.7154ZM30.3478 33.4654L26 30.8567V36.1067L30.3478 38.7154V33.4654ZM31.4345 26.3242L35.8149 28.9547L31.4345 31.5742L27.0541 28.9547L31.4345 26.3242ZM65.1304 73.0633L69.4783 75.672V70.422L65.1304 67.8133V73.0633ZM68.7717 64.3676L70.5652 63.2807L74.8478 65.9111L70.5 68.5307L66.1522 65.9111L66.7717 65.5415L62.1304 61.6394C60.7059 63.177 58.979 64.4038 57.058 65.2428C55.1371 66.0818 53.0635 66.5148 50.9674 66.5148C48.8712 66.5148 46.7977 66.0818 44.8767 65.2428C42.9558 64.4038 41.2289 63.177 39.8043 61.6394L35.163 65.5415L35.7826 65.9111L31.4348 68.5307L27.087 65.9111L31.4348 63.2807L33.2283 64.3676L33.9626 63.7563C38.2367 60.1986 38.3226 60.1271 38.4146 60.0646L38.4204 60.0608C38.4337 60.0517 38.449 60.0414 38.4783 60.0198C36.7134 57.4642 35.7728 54.4298 35.7826 51.3241C35.7826 47.0159 37.4306 44.3682 38.1301 43.2445C38.3553 42.8826 38.4822 42.6788 38.4239 42.6285L33.2283 38.2807L32.5217 38.7154V33.4654L36.8696 30.8567V36.1067L35.1957 37.1067L39.837 41.0089C41.2615 39.4712 42.9884 38.2445 44.9094 37.4055C46.8303 36.5665 48.9038 36.1335 51 36.1335C53.0962 36.1335 55.1697 36.5665 57.0906 37.4055C59.0116 38.2445 60.7385 39.4712 62.163 41.0089L66.8043 37.1067L65.1304 36.1067V30.8567L69.4783 33.4654V38.7698L68.7717 38.3459L67.467 39.4309L67.4658 39.4319L67.4634 39.4339L67.4605 39.4363L67.46 39.4367L67.4577 39.4386C63.7314 42.5374 63.5566 42.6827 63.5521 42.6776C63.5518 42.6773 63.552 42.6767 63.5522 42.6761C63.5531 42.6732 63.5541 42.6698 63.5217 42.6937C65.2802 45.2279 66.2209 48.2396 66.2174 51.3241C66.2174 55.6324 64.5694 58.2801 63.8699 59.4038C63.6447 59.7657 63.5178 59.9695 63.5761 60.0198L68.7717 64.3676ZM59.6765 56.0009C59.6962 55.9138 59.696 55.8222 59.6957 55.7117L59.6957 55.672C59.6957 52.333 59.7085 50.263 59.7165 48.9649C59.7287 46.9879 59.7299 46.8011 59.6579 46.6489C59.6539 46.6404 59.6496 46.632 59.6452 46.6235L59.6329 46.6004L59.6329 46.6003C59.6195 46.5754 59.6042 46.547 59.587 46.5089C59.58 46.4935 59.5735 46.4789 59.5674 46.465L59.5673 46.4649C59.5537 46.4339 59.5415 46.4061 59.5273 46.3793C59.4026 46.1441 59.1277 45.9885 56.4376 44.4657C55.2975 43.8204 53.7236 42.9294 51.5435 41.6828L51.5219 41.6711C51.4235 41.6176 51.3419 41.5732 51.2547 41.5476C50.83 41.4228 50.2741 41.7446 47.0101 43.6341C45.9424 44.2522 44.5851 45.0379 42.8478 46.0307C42.2441 46.4607 42.2445 46.5006 42.2791 50.5405C42.2901 51.8104 42.3043 53.4754 42.3043 55.672C42.3043 55.6945 42.3042 55.7162 42.304 55.7372V55.7373V55.7374C42.3033 55.8359 42.3027 55.9183 42.3194 55.9971C42.4054 56.403 42.9512 56.7115 46.3095 58.6097L46.3095 58.6098L46.3095 58.6098L46.3096 58.6098L46.3096 58.6098L46.3096 58.6098L46.3098 58.6099L46.3113 58.6108C47.3819 59.2159 48.7383 59.9826 50.4565 60.9654C50.6218 61.0608 50.8092 61.1111 51 61.1111C51.1908 61.1111 51.3782 61.0608 51.5435 60.9654C53.2794 59.9745 54.6458 59.2046 55.7212 58.5986L55.7239 58.597L55.7243 58.5968C59.0183 56.7408 59.5812 56.4236 59.6765 56.0009ZM71.6522 75.672L76 73.0633V67.8133L71.6522 70.422V75.672ZM30.3478 75.672L26 73.0633V67.8133L30.3478 70.422V75.672ZM32.5217 75.672L36.8696 73.0633V67.8133L32.5217 70.422V75.672ZM49.913 58.1511L44.4783 55.0424V48.8467L49.913 51.9554V58.1511ZM50.9995 43.879L45.5864 46.9768L50.9995 50.0746L56.4125 46.9768L50.9995 43.879ZM57.5217 55.0424L52.087 58.1511V51.9554L57.5217 48.8467V55.0424Z" fill="white"/>
</svg>
