<svg width="102" height="102" viewBox="0 0 102 102" fill="none" xmlns="http://www.w3.org/2000/svg">
<circle cx="51" cy="51" r="51" fill="#FBC02D"/>
<path d="M74.5029 29.9314C74.7837 29.6035 74.9305 29.1816 74.9138 28.7502C74.8971 28.3187 74.7183 27.9095 74.413 27.6042C74.1077 27.2989 73.6984 27.12 73.2669 27.1034C72.8355 27.0867 72.4137 27.2334 72.0857 27.5143L62.2971 37.2857H40.7143V28.7143C40.7143 28.2596 40.5337 27.8236 40.2122 27.5021C39.8907 27.1806 39.4547 27 39 27C38.5453 27 38.1093 27.1806 37.7878 27.5021C37.4663 27.8236 37.2857 28.2596 37.2857 28.7143V37.2857H28.7143C28.2596 37.2857 27.8236 37.4663 27.5021 37.7878C27.1806 38.1093 27 38.5453 27 39C27 39.4547 27.1806 39.8907 27.5021 40.2122C27.8236 40.5337 28.2596 40.7143 28.7143 40.7143H37.2857V63C37.2857 63.4547 37.4663 63.8907 37.7878 64.2122C38.1093 64.5337 38.5453 64.7143 39 64.7143H61.2857V73.2857C61.2857 73.7404 61.4663 74.1764 61.7878 74.4979C62.1093 74.8194 62.5453 75 63 75C63.4547 75 63.8907 74.8194 64.2122 74.4979C64.5337 74.1764 64.7143 73.7404 64.7143 73.2857V64.7143H73.2857C73.7404 64.7143 74.1764 64.5337 74.4979 64.2122C74.8194 63.8907 75 63.4547 75 63C75 62.5453 74.8194 62.1093 74.4979 61.7878C74.1764 61.4663 73.7404 61.2857 73.2857 61.2857H64.7143V39.7029L74.5029 29.9314ZM40.7143 40.7143H58.8686L40.7143 58.8686V40.7143ZM61.2857 61.2857H43.1314L61.2857 43.1314V61.2857Z" fill="white"/>
</svg>
