<svg width="102" height="102" viewBox="0 0 102 102" fill="none" xmlns="http://www.w3.org/2000/svg">
<circle cx="51" cy="51" r="51" fill="#FF6363"/>
<g clip-path="url(#clip0)">
<path d="M50.9995 27C44.3745 27 38.7183 29.3438 34.0308 34.0312C29.3433 38.7188 26.9995 44.375 26.9995 51C26.9995 57.625 29.3433 63.2812 34.0308 67.9688C38.7183 72.6562 44.3745 75 50.9995 75C57.6245 75 63.2808 72.6562 67.9683 67.9688C72.6558 63.2812 74.9995 57.625 74.9995 51C74.9995 44.375 72.6558 38.7188 67.9683 34.0312C63.2808 29.3438 57.6245 27 50.9995 27ZM50.9995 70.9688C45.4995 70.9688 40.7964 69.0156 36.8901 65.1094C32.9839 61.2031 31.0308 56.5 31.0308 51C31.0308 45.5 32.9839 40.7969 36.8901 36.8906C40.7964 32.9844 45.4995 31.0312 50.9995 31.0312C56.4995 31.0312 61.2026 32.9844 65.1089 36.8906C69.0151 40.7969 70.9683 45.5 70.9683 51C70.9683 56.5 69.0151 61.2031 65.1089 65.1094C61.2026 69.0156 56.4995 70.9688 50.9995 70.9688ZM50.9995 37.0312C47.1245 37.0312 43.8276 38.3906 41.1089 41.1094C38.3901 43.8281 37.0308 47.125 37.0308 51C37.0308 54.875 38.3901 58.1719 41.1089 60.8906C43.8276 63.6094 47.1245 64.9688 50.9995 64.9688C54.8745 64.9688 58.1714 63.6094 60.8901 60.8906C63.6089 58.1719 64.9683 54.875 64.9683 51C64.9683 47.125 63.6089 43.8281 60.8901 41.1094C58.1714 38.3906 54.8745 37.0312 50.9995 37.0312ZM50.9995 61.0312C48.187 61.0312 45.812 60.0625 43.8745 58.125C41.937 56.1875 40.9683 53.8125 40.9683 51C40.9683 48.1875 41.937 45.8125 43.8745 43.875C45.812 41.9375 48.187 40.9688 50.9995 40.9688C53.812 40.9688 56.187 41.9375 58.1245 43.875C60.062 45.8125 61.0308 48.1875 61.0308 51C61.0308 53.8125 60.062 56.1875 58.1245 58.125C56.187 60.0625 53.812 61.0312 50.9995 61.0312ZM55.0308 51C55.0308 52.125 54.6401 53.0781 53.8589 53.8594C53.0776 54.6406 52.1245 55.0312 50.9995 55.0312C49.8745 55.0312 48.9214 54.6406 48.1401 53.8594C47.3589 53.0781 46.9683 52.125 46.9683 51C46.9683 49.875 47.3589 48.9219 48.1401 48.1406C48.9214 47.3594 49.8745 46.9688 50.9995 46.9688C52.1245 46.9688 53.0776 47.3594 53.8589 48.1406C54.6401 48.9219 55.0308 49.875 55.0308 51Z" fill="white"/>
</g>
<defs>
<clipPath id="clip0">
<rect width="48" height="48" fill="white" transform="translate(26.9995 27)"/>
</clipPath>
</defs>
</svg>
