<svg width="102" height="102" viewBox="0 0 102 102" fill="none" xmlns="http://www.w3.org/2000/svg">
<circle cx="51" cy="51" r="51" fill="#12B95C"/>
<path d="M72.75 43.75H58.25V29.25H72.75V43.75ZM61.875 40.125H69.125V32.875H61.875V40.125Z" fill="white"/>
<path d="M52.8125 49.1875V38.3125H38.3125V63.6875H63.6875V49.1875H52.8125ZM41.9375 41.9375H49.1875V49.1875H41.9375V41.9375ZM49.1875 60.0625H41.9375V52.8125H49.1875V60.0625ZM60.0625 60.0625H52.8125V52.8125H60.0625V60.0625Z" fill="white"/>
<path d="M69.125 72.75H32.875C31.9139 72.749 30.9924 72.3668 30.3128 71.6872C29.6332 71.0076 29.251 70.0861 29.25 69.125V32.875C29.251 31.9139 29.6332 30.9924 30.3128 30.3128C30.9924 29.6332 31.9139 29.251 32.875 29.25H51V32.875H32.875V69.125H69.125V51H72.75V69.125C72.749 70.0861 72.3668 71.0076 71.6872 71.6872C71.0076 72.3668 70.0861 72.749 69.125 72.75Z" fill="white"/>
</svg>
