<svg width="102" height="102" viewBox="0 0 102 102" fill="none" xmlns="http://www.w3.org/2000/svg">
<circle cx="51" cy="51" r="51" fill="#00BFA5"/>
<path fill-rule="evenodd" clip-rule="evenodd" d="M73 49.1053H74.1053C75.1579 49.1053 76 49.9474 76 51C76 52.0526 75.1579 52.8947 74.1053 52.8947H73C72.1053 63.5789 63.5789 72.1053 52.8947 73V74.1053C52.8947 75.1579 52.0526 76 51 76C49.9474 76 49.1053 75.1579 49.1053 74.1053V73C38.4211 72.1053 29.8947 63.5789 29 52.8947H27.8947C26.8421 52.8947 26 52.0526 26 51C26 49.9474 26.8421 49.1053 27.8947 49.1053H29C29.8947 38.4211 38.4211 29.8947 49.1053 29V27.8947C49.1053 26.8421 49.9474 26 51 26C52.0526 26 52.8947 26.8421 52.8947 27.8947V29C63.5789 29.8947 72.1053 38.4211 73 49.1053ZM52.8947 68.3158V69.2105C61.4737 68.3158 68.3158 61.4737 69.2105 52.8947H68.3158C67.2632 52.8947 66.4211 52.0526 66.4211 51C66.4211 49.9474 67.2632 49.1053 68.3158 49.1053H69.2105C68.3158 40.5263 61.4737 33.6842 52.8947 32.7895V33.6842C52.8947 34.7368 52.0526 35.5789 51 35.5789C49.9474 35.5789 49.1053 34.7368 49.1053 33.6842V32.7895C40.5263 33.6842 33.6842 40.5263 32.7895 49.1053H33.6842C34.7368 49.1053 35.5789 49.9474 35.5789 51C35.5789 52.0526 34.7368 52.8947 33.6842 52.8947H32.7895C33.6842 61.4737 40.5263 68.3158 49.1053 69.2105V68.3158C49.1053 67.2632 49.9474 66.4211 51 66.4211C52.0526 66.4211 52.8947 67.2632 52.8947 68.3158ZM50.1577 49.1583H51.8419C53.4208 49.1583 54.9472 49.8425 55.9472 51.0004C56.9998 52.1583 57.5261 53.7373 57.3682 55.3162C57.1051 57.6846 55.263 59.6846 52.7893 60.2109V62.2636C52.7893 62.6846 52.4735 63.0004 52.0524 63.0004H49.8419C49.4209 63.0004 49.1051 62.6846 49.1051 62.2636V60.3162C46.8419 60.053 44.9998 58.2636 44.7893 55.9478C44.7893 55.7899 44.8419 55.5794 44.9998 55.4215C45.1577 55.2636 45.3682 55.1583 45.5787 55.1583H47.8419C48.2103 55.1583 48.5261 55.4215 48.5787 55.7373C48.684 56.2636 49.2103 56.6846 49.7893 56.6846H51.7366C52.7893 56.6846 53.684 55.9478 53.7893 55.0004C53.8419 54.4741 53.684 53.9478 53.3156 53.5267C52.9472 53.1057 52.4209 52.8951 51.8945 52.8951H50.4735C47.4735 52.8951 44.8945 50.6846 44.6314 47.8425C44.3682 44.8951 46.3682 42.3162 49.2103 41.7899V39.7899C49.2103 39.3688 49.5261 39.053 49.9472 39.053H52.1577C52.5787 39.053 52.8945 39.3688 52.8945 39.7899V41.7373C55.2103 42.0004 56.9998 43.7899 57.2103 46.1057C57.263 46.2636 57.2103 46.4741 57.0524 46.632C56.8945 46.7899 56.684 46.8951 56.4735 46.8951H54.2103C53.8419 46.8951 53.5261 46.632 53.4735 46.3162C53.3682 45.7373 52.8419 45.3162 52.263 45.3162H50.3156C49.263 45.3162 48.3682 46.1057 48.263 47.053C48.2103 47.5794 48.3682 48.1057 48.7366 48.5267C49.1051 48.9478 49.6314 49.1583 50.1577 49.1583Z" fill="white"/>
</svg>
